<svg width="72" height="72" viewBox="0 0 72 72" fill="none" xmlns="http://www.w3.org/2000/svg">
<path d="M59.85 63C53.6 63 47.425 61.638 41.325 58.914C35.225 56.19 29.675 52.327 24.675 47.325C19.675 42.323 15.813 36.773 13.089 30.675C10.365 24.577 9.002 18.402 9 12.15C9 11.25 9.3 10.5 9.9 9.9C10.5 9.3 11.25 9 12.15 9H24.3C25 9 25.625 9.238 26.175 9.714C26.725 10.19 27.05 10.752 27.15 11.4L29.1 21.9C29.2 22.7 29.175 23.375 29.025 23.925C28.875 24.475 28.6 24.95 28.2 25.35L20.925 32.7C21.925 34.55 23.112 36.337 24.486 38.061C25.86 39.785 27.373 41.448 29.025 43.05C30.575 44.6 32.2 46.038 33.9 47.364C35.6 48.69 37.4 49.902 39.3 51L46.35 43.95C46.8 43.5 47.388 43.163 48.114 42.939C48.84 42.715 49.552 42.652 50.25 42.75L60.6 44.85C61.3 45.05 61.875 45.413 62.325 45.939C62.775 46.465 63 47.052 63 47.7V59.85C63 60.75 62.7 61.5 62.1 62.1C61.5 62.7 60.75 63 59.85 63Z" fill="#02B928"/>
</svg>
