<svg width="74" height="74" viewBox="0 0 74 74" fill="none" xmlns="http://www.w3.org/2000/svg">
<path d="M12.3346 61.6667C10.6388 61.6667 9.18758 61.0634 7.98097 59.8568C6.77436 58.6501 6.17002 57.1979 6.16797 55.5V18.5C6.16797 16.8042 6.7723 15.353 7.98097 14.1463C9.18964 12.9397 10.6409 12.3354 12.3346 12.3333H61.668C63.3638 12.3333 64.8161 12.9377 66.0247 14.1463C67.2334 15.355 67.8367 16.8062 67.8346 18.5V55.5C67.8346 57.1958 67.2313 58.6481 66.0247 59.8568C64.8181 61.0654 63.3659 61.6687 61.668 61.6667H12.3346ZM37.0013 40.0833L61.668 24.6667V18.5L37.0013 33.9167L12.3346 18.5V24.6667L37.0013 40.0833Z" fill="#02B928"/>
</svg>
