<svg width="46" height="64" viewBox="0 0 46 64" fill="none" xmlns="http://www.w3.org/2000/svg">
<path d="M22.9987 30.4166C20.8991 30.4166 18.8854 29.5826 17.4008 28.0979C15.9161 26.6132 15.082 24.5996 15.082 22.5C15.082 20.4003 15.9161 18.3867 17.4008 16.9021C18.8854 15.4174 20.8991 14.5833 22.9987 14.5833C25.0983 14.5833 27.112 15.4174 28.5966 16.9021C30.0813 18.3867 30.9154 20.4003 30.9154 22.5C30.9154 23.5396 30.7106 24.5691 30.3127 25.5296C29.9149 26.4901 29.3318 27.3628 28.5966 28.0979C27.8615 28.833 26.9888 29.4162 26.0283 29.814C25.0678 30.2119 24.0383 30.4166 22.9987 30.4166ZM22.9987 0.333313C17.1197 0.333313 11.4816 2.66872 7.3245 6.82578C3.16744 10.9828 0.832031 16.621 0.832031 22.5C0.832031 39.125 22.9987 63.6666 22.9987 63.6666C22.9987 63.6666 45.1654 39.125 45.1654 22.5C45.1654 16.621 42.83 10.9828 38.6729 6.82578C34.5158 2.66872 28.8777 0.333313 22.9987 0.333313Z" fill="#02B928"/>
</svg>
