<svg width="187" height="65" viewBox="0 0 187 65" fill="none" xmlns="http://www.w3.org/2000/svg">
<path fill-rule="evenodd" clip-rule="evenodd" d="M12.9965 62.3431C13.1921 63.8977 14.5321 65.2087 16.4661 64.9723C17.9944 64.786 19.2692 63.3819 19.0882 61.641C18.6825 57.7007 12.4678 58.281 12.9965 62.3431ZM20.1095 35.7569C18.5304 34.9904 17.3208 33.9444 16.4951 32.6047C15.6693 31.2793 15.2564 29.7964 15.2564 28.1414C15.2564 26.8949 15.5027 25.7128 16.0098 24.6024C16.5168 23.4919 17.2194 22.5176 18.132 21.7009C19.0375 20.877 20.1095 20.2179 21.3481 19.7379C22.5794 19.2436 23.9412 19 25.426 19C27.8815 19 29.9966 19.5875 31.7495 20.7552H37.1674C37.5731 20.7552 37.8773 20.7552 38.0946 20.7624C38.3046 20.7695 38.4712 20.791 38.5726 20.8197C38.6668 20.8483 38.732 20.8842 38.7537 20.92C38.7755 20.9486 38.8044 20.9988 38.8334 21.0561C38.9421 21.2209 39 21.5146 39 21.9373C39 22.2095 39 22.4388 38.9928 22.6179C38.9855 22.797 38.9276 22.9259 38.8189 23.0191C38.7175 23.1051 38.5437 23.1695 38.2902 23.1982C38.0439 23.2268 37.6672 23.234 37.1674 23.234H33.8573C34.893 24.5737 35.4073 26.2644 35.4073 28.3062C35.4073 29.4668 35.1683 30.5558 34.6902 31.5946C34.2267 32.6334 33.553 33.536 32.6766 34.3098C31.8002 35.0835 30.7426 35.6925 29.4968 36.151C28.2509 36.6166 26.8747 36.8387 25.3536 36.8387C24.1078 36.8387 22.8112 36.6524 21.4784 36.2871C20.631 36.982 20.0732 37.5909 19.7835 38.1211C19.5083 38.6369 19.3706 39.0883 19.3706 39.4536C19.3706 39.733 19.4213 39.9623 19.5372 40.17C19.6459 40.3706 19.9066 40.5354 20.3268 40.6787C20.7469 40.822 21.3626 40.9223 22.181 41.0082C22.9995 41.0942 24.115 41.1515 25.5202 41.1873C27.4324 41.2447 29.0115 41.2948 30.2501 41.345C31.4742 41.3951 32.3869 41.4739 32.9591 41.5527C33.8138 41.6673 34.5961 41.8823 35.3132 42.2118C36.0158 42.5557 36.617 42.9641 37.1095 43.4584C37.5151 43.8667 37.8483 44.3252 38.1018 44.8339C38.2902 45.1061 38.435 45.4715 38.5147 45.9658C38.5147 45.9802 38.5437 46.0661 38.5292 46.0733C38.6233 46.8327 38.5582 47.8858 38.2395 49.2972C37.2037 53.8607 33.5168 57.6076 28.7145 58.9902C23.0865 60.6165 17.1325 58.4028 13.9092 53.653C10.1572 48.1294 12.7503 45.2064 10.0992 41.0799C9.49802 40.1485 8.99823 39.5468 8.19423 38.8877C6.90492 37.8417 5.37658 37.0393 3.71786 36.7599C3.00802 36.6381 1.96499 36.6811 1.42174 36.545C0.299025 36.2584 -0.468765 34.7754 0.327998 33.5432C1.8998 31.1217 15.155 33.8728 15.4882 46.3312C15.6403 50.7515 18.4797 53.8535 21.7754 55.05C24.7234 56.1246 28.2365 55.6589 30.7281 53.8177C31.1193 53.5383 31.5177 53.1801 31.7567 52.9509C32.4014 52.3419 32.7563 51.7903 33.2488 51.081C34.2774 49.6052 35.9288 46.2094 33.017 45.8297C32.0971 45.7079 30.9092 45.6291 29.4606 45.5933C27.3673 45.536 25.5202 45.4572 23.9267 45.3497C21.0583 45.1634 18.2407 45.5073 16.256 43.2076C15.8576 42.7706 15.6548 42.2548 15.6548 41.6888C15.6548 41.3593 15.7055 41.0082 15.7997 40.65C15.8866 40.2918 16.0967 39.8906 16.4081 39.4321C16.7196 38.9665 17.1687 38.4435 17.7626 37.856C18.3421 37.2614 19.1316 36.5665 20.1095 35.7569ZM24.9697 20.3039C24.2961 20.3039 23.6659 20.4328 23.0647 20.6979C22.478 20.9701 21.9565 21.3713 21.5147 21.9086C21.0801 22.4531 20.7396 23.1409 20.4934 23.9791C20.2326 24.8173 20.1095 25.7916 20.1095 26.9164C20.1095 28.1629 20.2326 29.3164 20.4934 30.3552C20.7396 31.4011 21.109 32.3181 21.5943 33.0775C22.0796 33.8369 22.6591 34.4316 23.3545 34.8542C24.0353 35.2769 24.8176 35.4847 25.694 35.4847C26.4039 35.4847 27.0558 35.3557 27.6497 35.0978C28.2437 34.8471 28.758 34.4531 29.1853 33.9157C29.6127 33.3784 29.9459 32.7122 30.1921 31.8955C30.4312 31.0716 30.5543 30.1044 30.5543 28.9868C30.5543 27.7546 30.4312 26.6012 30.1704 25.548C29.9241 24.4949 29.562 23.5779 29.0912 22.797C28.6131 22.0161 28.0336 21.4 27.3383 20.9558C26.6574 20.5188 25.8679 20.3039 24.9697 20.3039ZM31.0976 62.4863C31.3149 63.998 32.8142 65.1801 34.5961 64.9723C36.0954 64.7932 37.4427 63.2744 37.153 61.469C36.5445 57.7222 30.5108 58.4601 31.0976 62.4863Z" fill="#02B928"/>
<path d="M47.1055 21.9775V27.0068C48.9935 23.654 50.9141 21.9775 52.8672 21.9775C53.3066 21.9775 53.7135 22.0508 54.0879 22.1973C54.4622 22.3438 54.7878 22.5472 55.0645 22.8076C55.3574 23.0518 55.5771 23.3366 55.7236 23.6621C55.8864 23.9876 55.9678 24.3294 55.9678 24.6875C55.9678 25.3223 55.7562 25.8594 55.333 26.2988C54.9098 26.7383 54.4053 26.958 53.8193 26.958C53.5426 26.958 53.2334 26.8685 52.8916 26.6895C52.5498 26.5104 52.208 26.3232 51.8662 26.1279C51.5407 25.9163 51.2396 25.721 50.9629 25.542C50.6862 25.363 50.4746 25.2734 50.3281 25.2734C50.1165 25.2734 49.8805 25.3711 49.6201 25.5664C49.3597 25.7454 49.0911 26.0059 48.8145 26.3477C48.5378 26.6732 48.2529 27.0719 47.96 27.5439C47.667 27.9997 47.3822 28.5042 47.1055 29.0576V39.7754C47.1055 40.4427 47.1462 41.0449 47.2275 41.582C47.3089 42.1191 47.4798 42.5749 47.7402 42.9492C48.0169 43.3236 48.4157 43.6165 48.9365 43.8281C49.4574 44.0234 50.1491 44.1211 51.0117 44.1211V45H39.5615V44.1211C40.2777 44.1211 40.8636 44.0723 41.3193 43.9746C41.7751 43.877 42.1331 43.6816 42.3936 43.3887C42.654 43.0957 42.833 42.6807 42.9307 42.1436C43.0283 41.5902 43.0771 40.8659 43.0771 39.9707V31.3037C43.0771 28.667 43.0202 27.1208 42.9062 26.665C42.6947 25.7048 42.1494 25.2246 41.2705 25.2246C40.766 25.2246 40.1963 25.3467 39.5615 25.5908L39.3174 24.7119L46.0801 21.9775H47.1055Z" fill="#02B928"/>
<path d="M107.557 36.5039C107.247 37.985 106.784 39.2952 106.165 40.4346C105.547 41.5739 104.822 42.5342 103.992 43.3154C103.162 44.0967 102.251 44.6826 101.258 45.0732C100.265 45.4801 99.2396 45.6836 98.1816 45.6836C96.9284 45.6836 95.7321 45.4069 94.5928 44.8535C93.4535 44.3001 92.4443 43.5107 91.5654 42.4854C90.7028 41.46 90.0111 40.223 89.4902 38.7744C88.9694 37.3096 88.709 35.6657 88.709 33.8428C88.709 32.085 88.9938 30.4818 89.5635 29.0332C90.1331 27.5684 90.8981 26.3151 91.8584 25.2734C92.835 24.2318 93.9661 23.4261 95.252 22.8564C96.554 22.2705 97.9294 21.9775 99.3779 21.9775C100.468 21.9775 101.469 22.1403 102.381 22.4658C103.309 22.7913 104.106 23.2145 104.773 23.7354C105.441 24.2562 105.962 24.834 106.336 25.4688C106.727 26.1035 106.922 26.7301 106.922 27.3486C106.922 27.9671 106.727 28.4717 106.336 28.8623C105.945 29.2367 105.384 29.4238 104.651 29.4238C104.277 29.4238 103.927 29.3831 103.602 29.3018C103.292 29.2204 103.016 29.0739 102.771 28.8623C102.544 28.6507 102.356 28.3577 102.21 27.9834C102.063 27.609 101.966 27.1289 101.917 26.543C101.836 25.5827 101.51 24.8584 100.94 24.3701C100.387 23.8656 99.5977 23.6133 98.5723 23.6133C97.612 23.6133 96.7656 23.833 96.0332 24.2725C95.3008 24.6956 94.6823 25.2816 94.1777 26.0303C93.6732 26.7627 93.2907 27.6253 93.0303 28.6182C92.7861 29.5947 92.6641 30.6364 92.6641 31.7432C92.6641 33.0452 92.8268 34.3066 93.1523 35.5273C93.4941 36.7318 93.9743 37.806 94.5928 38.75C95.2275 39.694 95.9925 40.4508 96.8877 41.0205C97.7829 41.5902 98.8001 41.875 99.9395 41.875C100.623 41.875 101.274 41.7936 101.893 41.6309C102.511 41.4518 103.105 41.1507 103.675 40.7275C104.244 40.3044 104.79 39.7266 105.311 38.9941C105.848 38.2454 106.36 37.3014 106.849 36.1621L107.557 36.5039Z" fill="#02B928"/>
<path d="M115.322 31.0596C115.322 32.7197 115.542 34.209 115.981 35.5273C116.421 36.8457 117.015 37.9688 117.764 38.8965C118.512 39.8079 119.375 40.5078 120.352 40.9961C121.344 41.4681 122.386 41.7041 123.477 41.7041C124.941 41.7041 126.211 41.3053 127.285 40.5078C128.376 39.694 129.287 38.3105 130.02 36.3574L130.776 36.8457C130.597 37.9362 130.256 39.0104 129.751 40.0684C129.246 41.1263 128.595 42.0703 127.798 42.9004C127.017 43.7305 126.097 44.4059 125.039 44.9268C123.997 45.4313 122.858 45.6836 121.621 45.6836C120.286 45.6836 119.025 45.415 117.837 44.8779C116.665 44.3245 115.632 43.5514 114.736 42.5586C113.857 41.5495 113.158 40.3369 112.637 38.9209C112.116 37.4886 111.855 35.8854 111.855 34.1113C111.855 32.1745 112.116 30.4574 112.637 28.96C113.174 27.4463 113.906 26.1686 114.834 25.127C115.762 24.0853 116.852 23.2959 118.105 22.7588C119.375 22.2217 120.734 21.9531 122.183 21.9531C123.42 21.9531 124.559 22.1729 125.601 22.6123C126.659 23.0355 127.57 23.6458 128.335 24.4434C129.1 25.2409 129.694 26.2012 130.117 27.3242C130.557 28.431 130.776 29.6761 130.776 31.0596H115.322ZM115.322 29.6436H125.674C125.609 28.2113 125.438 27.2021 125.161 26.6162C124.754 25.7048 124.144 24.9886 123.33 24.4678C122.533 23.9469 121.694 23.6865 120.815 23.6865C120.148 23.6865 119.505 23.8249 118.887 24.1016C118.268 24.362 117.707 24.7526 117.202 25.2734C116.698 25.778 116.274 26.3965 115.933 27.1289C115.607 27.8613 115.404 28.6995 115.322 29.6436Z" fill="#02B928"/>
<path d="M141.105 21.9775V27.0068C142.993 23.654 144.914 21.9775 146.867 21.9775C147.307 21.9775 147.714 22.0508 148.088 22.1973C148.462 22.3438 148.788 22.5472 149.064 22.8076C149.357 23.0518 149.577 23.3366 149.724 23.6621C149.886 23.9876 149.968 24.3294 149.968 24.6875C149.968 25.3223 149.756 25.8594 149.333 26.2988C148.91 26.7383 148.405 26.958 147.819 26.958C147.543 26.958 147.233 26.8685 146.892 26.6895C146.55 26.5104 146.208 26.3232 145.866 26.1279C145.541 25.9163 145.24 25.721 144.963 25.542C144.686 25.363 144.475 25.2734 144.328 25.2734C144.117 25.2734 143.881 25.3711 143.62 25.5664C143.36 25.7454 143.091 26.0059 142.814 26.3477C142.538 26.6732 142.253 27.0719 141.96 27.5439C141.667 27.9997 141.382 28.5042 141.105 29.0576V39.7754C141.105 40.4427 141.146 41.0449 141.228 41.582C141.309 42.1191 141.48 42.5749 141.74 42.9492C142.017 43.3236 142.416 43.6165 142.937 43.8281C143.457 44.0234 144.149 44.1211 145.012 44.1211V45H133.562V44.1211C134.278 44.1211 134.864 44.0723 135.319 43.9746C135.775 43.877 136.133 43.6816 136.394 43.3887C136.654 43.0957 136.833 42.6807 136.931 42.1436C137.028 41.5902 137.077 40.8659 137.077 39.9707V31.3037C137.077 28.667 137.02 27.1208 136.906 26.665C136.695 25.7048 136.149 25.2246 135.271 25.2246C134.766 25.2246 134.196 25.3467 133.562 25.5908L133.317 24.7119L140.08 21.9775H141.105Z" fill="#02B928"/>
<path d="M157.251 10.2832C157.593 10.2832 157.91 10.3483 158.203 10.4785C158.512 10.6087 158.773 10.7878 158.984 11.0156C159.212 11.2272 159.391 11.4876 159.521 11.7969C159.652 12.0898 159.717 12.4072 159.717 12.749C159.717 13.0908 159.652 13.4163 159.521 13.7256C159.391 14.0186 159.212 14.279 158.984 14.5068C158.773 14.7347 158.512 14.9137 158.203 15.0439C157.91 15.1742 157.593 15.2393 157.251 15.2393C156.909 15.2393 156.584 15.1742 156.274 15.0439C155.981 14.9137 155.721 14.7347 155.493 14.5068C155.265 14.279 155.086 14.0186 154.956 13.7256C154.826 13.4163 154.761 13.0908 154.761 12.749C154.761 12.4072 154.826 12.0898 154.956 11.7969C155.086 11.4876 155.257 11.2272 155.469 11.0156C155.697 10.7878 155.965 10.6087 156.274 10.4785C156.584 10.3483 156.909 10.2832 157.251 10.2832ZM159.277 21.9775V39.9463C159.277 40.6624 159.302 41.2484 159.351 41.7041C159.399 42.1436 159.473 42.5016 159.57 42.7783C159.668 43.055 159.79 43.2666 159.937 43.4131C160.099 43.5433 160.278 43.6654 160.474 43.7793C160.897 44.0072 161.629 44.1211 162.671 44.1211V45H151.807V44.1211C152.36 44.1211 152.808 44.0967 153.149 44.0479C153.507 43.999 153.792 43.9176 154.004 43.8037C154.232 43.6898 154.403 43.5514 154.517 43.3887C154.647 43.2096 154.769 42.998 154.883 42.7539C155.111 42.2493 155.225 41.3135 155.225 39.9463V31.3281C155.225 29.9121 155.2 28.7972 155.151 27.9834C155.103 27.1696 155.013 26.5592 154.883 26.1523C154.769 25.7454 154.59 25.4932 154.346 25.3955C154.118 25.2816 153.825 25.2246 153.467 25.2246C153.011 25.2246 152.458 25.3467 151.807 25.5908L151.465 24.7119L158.203 21.9775H159.277Z" fill="#02B928"/>
<path d="M178.233 41.7773C175.938 43.5677 174.498 44.5931 173.912 44.8535C173.049 45.2604 172.114 45.4639 171.104 45.4639C170.34 45.4639 169.632 45.3255 168.98 45.0488C168.329 44.7721 167.768 44.3815 167.296 43.877C166.824 43.3724 166.45 42.7702 166.173 42.0703C165.912 41.3542 165.782 40.5648 165.782 39.7021C165.782 39.0674 165.864 38.4814 166.026 37.9443C166.205 37.4072 166.466 36.9027 166.808 36.4307C167.149 35.9424 167.581 35.4785 168.102 35.0391C168.639 34.5996 169.265 34.1683 169.981 33.7451C171.658 32.7523 174.409 31.5641 178.233 30.1807V29.3018C178.233 28.1787 178.136 27.2428 177.94 26.4941C177.761 25.7454 177.493 25.1514 177.135 24.7119C176.793 24.2562 176.362 23.9388 175.841 23.7598C175.32 23.5645 174.734 23.4668 174.083 23.4668C173.562 23.4668 173.09 23.5482 172.667 23.7109C172.26 23.8574 171.91 24.0609 171.617 24.3213C171.324 24.5654 171.096 24.8584 170.934 25.2002C170.787 25.5257 170.714 25.8594 170.714 26.2012L170.763 27.6172C170.763 28.3659 170.567 28.9437 170.177 29.3506C169.802 29.7575 169.306 29.9609 168.688 29.9609C168.085 29.9609 167.589 29.7493 167.198 29.3262C166.824 28.903 166.637 28.3252 166.637 27.5928C166.637 26.9092 166.816 26.2337 167.174 25.5664C167.548 24.8991 168.077 24.2969 168.761 23.7598C169.461 23.2227 170.315 22.7913 171.324 22.4658C172.35 22.1403 173.513 21.9775 174.815 21.9775C176.541 21.9775 178.006 22.2298 179.21 22.7344C180.414 23.2389 181.285 24.1097 181.822 25.3467C182.115 26.0628 182.262 27.4951 182.262 29.6436V37.2363C182.262 38.3105 182.27 39.1732 182.286 39.8242C182.319 40.4753 182.351 40.9229 182.384 41.167C182.465 41.639 182.595 41.9564 182.774 42.1191C182.97 42.2819 183.189 42.3633 183.434 42.3633C183.596 42.3633 183.751 42.3389 183.897 42.29C184.044 42.2412 184.215 42.1436 184.41 41.9971C184.605 41.8506 184.833 41.6553 185.094 41.4111C185.354 41.1507 185.688 40.8171 186.095 40.4102V41.7773C184.256 44.2188 182.514 45.4395 180.87 45.4395C180.089 45.4395 179.454 45.1628 178.966 44.6094C178.478 44.056 178.233 43.112 178.233 41.7773ZM178.233 40.1904V31.6699C176.996 32.1582 175.979 32.5732 175.182 32.915C174.4 33.2568 173.831 33.5335 173.473 33.7451C172.187 34.4775 171.267 35.2344 170.714 36.0156C170.16 36.7806 169.884 37.627 169.884 38.5547C169.884 39.1406 169.973 39.6859 170.152 40.1904C170.348 40.6787 170.6 41.11 170.909 41.4844C171.235 41.8424 171.609 42.1273 172.032 42.3389C172.455 42.5342 172.895 42.6318 173.351 42.6318C174.588 42.6318 176.215 41.818 178.233 40.1904Z" fill="#02B928"/>
<path fill-rule="evenodd" clip-rule="evenodd" d="M72.4939 21.4576C75.0903 21.4576 77.516 22.1763 79.5639 23.422L69.9219 27.9974C69.1661 28.3567 68.837 29.2551 69.2027 30.0097L69.3856 30.369C69.7512 31.1116 70.6655 31.435 71.4334 31.0757L82.5138 25.8295C82.8429 26.1888 83.1476 26.5601 83.4402 26.9554L72.0551 32.3453C71.2871 32.7046 70.9702 33.6029 71.3359 34.3575L71.5187 34.7169C71.8844 35.4595 72.7986 35.7829 73.5666 35.4235L85.098 29.9617C85.2686 30.3929 85.4271 30.8481 85.549 31.3032L74.1883 36.6932C73.4203 37.0525 73.1034 37.9508 73.4691 38.7054L73.6519 39.0647C74.0176 39.8073 74.9318 40.1307 75.6998 39.7714L86 34.8965C85.9147 42.143 79.9052 48 72.4939 48C65.046 48 59 42.0591 59 34.7288C59 27.3985 65.046 21.4576 72.4939 21.4576Z" fill="#F27318"/>
<path fill-rule="evenodd" clip-rule="evenodd" d="M80.0277 25.3898C79.2286 16.1816 96.1076 17.5875 80.0277 25.3898V25.3898Z" fill="#02B928"/>
</svg>
